<svg width="73" height="72" viewBox="0 0 73 72" fill="none" xmlns="http://www.w3.org/2000/svg">
<path d="M22.7597 26.036C27.2812 38.3707 31.9622 43.2921 43.8704 48.534L38.7097 55.7818C25.0353 49.2351 18.2244 38.1995 15.0166 29.5875L22.7597 26.036Z" fill="#FB2E86"/>
<path d="M26.5527 9.00706C28.9705 8.99761 30.8089 11.0094 30.644 13.2875C30.3847 16.8724 30.6608 19.4589 31.4043 22.6649C31.8127 24.4259 30.8888 26.2146 29.4205 27.3666C27.4414 28.9194 25.9294 30.898 24.7277 32.6012C23.0621 34.962 17.3302 34.7924 16.0626 32.2205C13.4574 26.9351 11.6919 17.1974 15.4962 10.6184C16.0937 9.58499 17.2969 9.04326 18.5437 9.03838L26.5527 9.00706Z" fill="#FB2E86"/>
<path d="M63.2536 48.1199C63.5543 45.8543 61.6606 43.8888 59.2461 43.7693C55.4465 43.5814 52.7609 43.0114 49.4802 41.9288C47.6781 41.3341 45.6868 41.9853 44.2992 43.2234C42.429 44.8921 40.1673 46.0717 38.2324 46.9935C35.5505 48.2712 35.0394 53.6656 37.5905 55.1634C42.8332 58.2415 52.8569 61.0678 60.2301 58.2923C61.3883 57.8563 62.1024 56.7934 62.2575 55.6251L63.2536 48.1199Z" fill="#FB2E86"/>
</svg>
